<svg xmlns="http://www.w3.org/2000/svg" viewBox="0 0 22.71 38.54"><defs><style>.cls-1,.cls-5{fill:#fff;}.cls-2,.cls-3,.cls-4{fill:none;}.cls-2,.cls-3,.cls-4,.cls-5{stroke:#1d1d1b;stroke-miterlimit:10;stroke-width:0.5px;}.cls-3{stroke-dasharray:1.05 1.05;}.cls-4{stroke-dasharray:1.03 1.03;}</style></defs><g id="Capa_2" data-name="Capa 2"><g id="Capa_1-2" data-name="Capa 1"><polygon class="cls-1" points="7.98 1.02 10.54 11.13 13.1 21.24 7.98 21.24 2.86 21.24 5.42 11.13 7.98 1.02"/><polyline class="cls-2" points="7.86 1.5 7.98 1.02 8.1 1.5"/><polyline class="cls-3" points="8.36 2.52 10.54 11.13 12.85 20.25"/><polyline class="cls-2" points="12.98 20.76 13.1 21.24 12.6 21.24"/><polyline class="cls-4" points="11.57 21.24 7.98 21.24 3.87 21.24"/><polyline class="cls-2" points="3.36 21.24 2.86 21.24 2.98 20.76"/><polyline class="cls-3" points="3.23 19.75 5.42 11.13 7.73 2.01"/><polygon class="cls-5" points="14.62 1.02 17.18 11.13 19.74 21.24 14.62 21.24 9.5 21.24 12.06 11.13 14.62 1.02"/><rect class="cls-2" x="0.25" y="21.24" width="22.21" height="17.04"/><rect class="cls-2" x="6" y="25.95" width="10.71" height="7.64"/><line class="cls-2" x1="0.19" y1="21.24" x2="6" y2="25.95"/><line class="cls-2" x1="22.51" y1="21.24" x2="16.71" y2="25.95"/><line class="cls-2" x1="22.33" y1="38.29" x2="16.71" y2="33.58"/><line class="cls-2" x1="0.25" y1="38.29" x2="6" y2="33.58"/><line class="cls-2" x1="6.23" y1="29.76" x2="16.71" y2="29.76"/></g></g></svg>