<svg xmlns="http://www.w3.org/2000/svg" viewBox="0 0 25.27 38.54"><defs><style>.cls-1{fill:#fff;}.cls-1,.cls-2{stroke:#1d1d1b;}.cls-1,.cls-2,.cls-3{stroke-miterlimit:10;stroke-width:0.5px;}.cls-2,.cls-3{fill:none;}.cls-3{stroke:#fff;}</style></defs><g id="Capa_2" data-name="Capa 2"><g id="Capa_1-2" data-name="Capa 1"><polyline class="cls-1" points="17.61 21.24 12.49 21.24 7.37 21.24"/><polygon class="cls-1" points="18.53 1.02 21.09 11.13 23.65 21.24 18.53 21.24 13.4 21.24 15.96 11.13 18.53 1.02"/><polygon class="cls-1" points="6.45 1.02 9.01 11.13 11.57 21.24 6.45 21.24 1.32 21.24 3.89 11.13 6.45 1.02"/><rect class="cls-2" x="1.38" y="21.24" width="22.21" height="17.04"/><polygon class="cls-3" points="0.79 38.1 0.25 38.1 0.42 19.25 0.89 20.36 0.79 38.1"/><rect class="cls-3" x="24.09" y="20.36" width="0.92" height="17.74"/><rect class="cls-2" x="7.14" y="25.95" width="10.71" height="7.64"/><line class="cls-2" x1="1.32" y1="21.24" x2="7.14" y2="25.95"/><line class="cls-2" x1="23.64" y1="21.24" x2="17.84" y2="25.95"/><line class="cls-2" x1="23.47" y1="38.29" x2="17.84" y2="33.58"/><line class="cls-2" x1="1.38" y1="38.29" x2="7.14" y2="33.58"/><line class="cls-2" x1="7.36" y1="29.76" x2="17.84" y2="29.76"/><line class="cls-2" x1="15.49" y1="25.83" x2="15.49" y2="33.47"/><line class="cls-2" x1="11.29" y1="25.95" x2="11.29" y2="33.59"/></g></g></svg>