<svg xmlns="http://www.w3.org/2000/svg" viewBox="0 0 25.14 38.54"><defs><style>.cls-1{fill:#fff;}.cls-1,.cls-2{stroke:#1d1d1b;}.cls-1,.cls-2,.cls-3{stroke-miterlimit:10;stroke-width:0.5px;}.cls-2,.cls-3{fill:none;}.cls-3{stroke:#fff;}</style></defs><g id="Capa_2" data-name="Capa 2"><g id="Capa_1-2" data-name="Capa 1"><polyline class="cls-1" points="17.49 21.24 12.36 21.24 7.24 21.24"/><polygon class="cls-1" points="18.4 1.02 20.96 11.13 23.52 21.24 18.4 21.24 13.28 21.24 15.84 11.13 18.4 1.02"/><polygon class="cls-1" points="6.32 1.02 8.88 11.13 11.45 21.24 6.32 21.24 1.2 21.24 3.76 11.13 6.32 1.02"/><rect class="cls-2" x="1.26" y="21.24" width="22.21" height="17.04"/><polygon class="cls-3" points="0.71 38.29 0.25 38.29 0.3 19.25 0.76 20.36 0.71 38.29"/><rect class="cls-3" x="23.97" y="20.36" width="0.92" height="17.93"/><rect class="cls-2" x="7.01" y="25.95" width="10.71" height="7.64"/><line class="cls-2" x1="1.2" y1="21.24" x2="7.01" y2="25.95"/><line class="cls-2" x1="23.52" y1="21.24" x2="17.72" y2="25.95"/><line class="cls-2" x1="23.34" y1="38.29" x2="17.72" y2="33.58"/><line class="cls-2" x1="1.26" y1="38.29" x2="7.01" y2="33.58"/><line class="cls-2" x1="7.24" y1="29.76" x2="17.72" y2="29.76"/><line class="cls-2" x1="13.51" y1="25.93" x2="13.51" y2="33.57"/><line class="cls-2" x1="9.27" y1="25.91" x2="9.27" y2="33.55"/></g></g></svg>