<svg xmlns="http://www.w3.org/2000/svg" viewBox="0 0 25.27 38.54"><defs><style>.cls-1{fill:#fff;}.cls-1,.cls-2{stroke:#1d1d1b;}.cls-1,.cls-2,.cls-3{stroke-miterlimit:10;stroke-width:0.5px;}.cls-2,.cls-3{fill:none;}.cls-3{stroke:#fff;}</style></defs><g id="Capa_2" data-name="Capa 2"><g id="Capa_1-2" data-name="Capa 1"><polyline class="cls-1" points="7.66 17.29 12.78 17.29 17.91 17.29"/><polygon class="cls-1" points="6.74 37.52 4.18 27.41 1.62 17.29 6.74 17.29 11.87 17.29 9.3 27.41 6.74 37.52"/><polygon class="cls-1" points="18.82 37.52 16.26 27.41 13.7 17.29 18.82 17.29 23.95 17.29 21.38 27.41 18.82 37.52"/><rect class="cls-2" x="1.67" y="0.25" width="22.21" height="17.04" transform="translate(25.56 17.54) rotate(180)"/><polygon class="cls-3" points="24.48 0.44 25.02 0.44 24.84 19.29 24.38 18.18 24.48 0.44"/><rect class="cls-3" x="0.25" y="0.44" width="0.92" height="17.74" transform="translate(1.43 18.62) rotate(180)"/><rect class="cls-2" x="7.42" y="4.95" width="10.71" height="7.64" transform="translate(25.56 17.54) rotate(180)"/><line class="cls-2" x1="23.94" y1="17.29" x2="18.13" y2="12.59"/><line class="cls-2" x1="1.63" y1="17.29" x2="7.42" y2="12.59"/><line class="cls-2" x1="1.8" y1="0.25" x2="7.42" y2="4.95"/><line class="cls-2" x1="23.89" y1="0.25" x2="18.13" y2="4.95"/><line class="cls-2" x1="17.9" y1="8.77" x2="7.42" y2="8.77"/><line class="cls-2" x1="9.78" y1="12.71" x2="9.78" y2="5.07"/><line class="cls-2" x1="13.98" y1="12.59" x2="13.98" y2="4.95"/></g></g></svg>