<svg xmlns="http://www.w3.org/2000/svg" viewBox="0 0 22.71 38.54"><defs><style>.cls-1,.cls-5{fill:#fff;}.cls-2,.cls-3,.cls-4{fill:none;}.cls-2,.cls-3,.cls-4,.cls-5{stroke:#1d1d1b;stroke-miterlimit:10;stroke-width:0.5px;}.cls-3{stroke-dasharray:1.05 1.05;}.cls-4{stroke-dasharray:1.03 1.03;}</style></defs><g id="Capa_2" data-name="Capa 2"><g id="Capa_1-2" data-name="Capa 1"><polygon class="cls-1" points="14.74 37.52 12.18 27.41 9.61 17.29 14.74 17.29 19.86 17.29 17.3 27.41 14.74 37.52"/><polyline class="cls-2" points="14.86 37.03 14.74 37.52 14.61 37.03"/><polyline class="cls-3" points="14.36 36.02 12.18 27.41 9.87 18.28"/><polyline class="cls-2" points="9.74 17.78 9.61 17.29 10.11 17.29"/><polyline class="cls-4" points="11.14 17.29 14.74 17.29 18.85 17.29"/><polyline class="cls-2" points="19.36 17.29 19.86 17.29 19.74 17.78"/><polyline class="cls-3" points="19.48 18.79 17.3 27.41 14.99 36.53"/><polygon class="cls-5" points="8.1 37.52 5.54 27.41 2.97 17.29 8.1 17.29 13.22 17.29 10.66 27.41 8.1 37.52"/><rect class="cls-2" x="0.25" y="0.25" width="22.21" height="17.04" transform="translate(22.71 17.54) rotate(180)"/><rect class="cls-2" x="6" y="4.95" width="10.71" height="7.64" transform="translate(22.71 17.54) rotate(180)"/><line class="cls-2" x1="22.52" y1="17.29" x2="16.71" y2="12.59"/><line class="cls-2" x1="0.21" y1="17.29" x2="6" y2="12.59"/><line class="cls-2" x1="0.38" y1="0.25" x2="6" y2="4.95"/><line class="cls-2" x1="22.47" y1="0.25" x2="16.71" y2="4.95"/><line class="cls-2" x1="16.48" y1="8.77" x2="6" y2="8.77"/></g></g></svg>