<svg xmlns="http://www.w3.org/2000/svg" viewBox="0 0 25.55 38.54"><defs><style>.cls-1{fill:#fff;}.cls-1,.cls-2{stroke:#1d1d1b;}.cls-1,.cls-2,.cls-3{stroke-miterlimit:10;stroke-width:0.5px;}.cls-2,.cls-3{fill:none;}.cls-3{stroke:#fff;}</style></defs><g id="Capa_2" data-name="Capa 2"><g id="Capa_1-2" data-name="Capa 1"><polygon class="cls-1" points="12.78 37.52 10.21 27.41 7.65 17.29 12.78 17.29 17.9 17.29 15.34 27.41 12.78 37.52"/><polygon class="cls-1" points="6.74 37.52 4.18 27.41 1.61 17.29 6.74 17.29 11.86 17.29 9.3 27.41 6.74 37.52"/><polygon class="cls-1" points="18.82 37.52 16.25 27.41 13.69 17.29 18.82 17.29 23.94 17.29 21.38 27.41 18.82 37.52"/><rect class="cls-2" x="1.66" y="0.25" width="22.21" height="17.04" transform="translate(25.54 17.54) rotate(180)"/><rect class="cls-3" x="24.38" y="0.25" width="0.92" height="17.93" transform="translate(49.68 18.43) rotate(180)"/><rect class="cls-3" x="0.25" y="0.25" width="0.92" height="17.93" transform="translate(1.42 18.43) rotate(180)"/><rect class="cls-2" x="7.42" y="4.95" width="10.71" height="7.64" transform="translate(25.54 17.54) rotate(180)"/><line class="cls-2" x1="23.94" y1="17.29" x2="18.13" y2="12.59"/><line class="cls-2" x1="1.62" y1="17.29" x2="7.42" y2="12.59"/><line class="cls-2" x1="1.8" y1="0.25" x2="7.42" y2="4.95"/><line class="cls-2" x1="23.88" y1="0.25" x2="18.13" y2="4.95"/><line class="cls-2" x1="17.9" y1="8.77" x2="7.42" y2="8.77"/><line class="cls-2" x1="12.72" y1="12.59" x2="12.72" y2="4.95"/></g></g></svg>